<svg width="22" height="29" viewBox="0 0 22 29" fill="none" xmlns="http://www.w3.org/2000/svg">
<path d="M9.56749 23.3471H12.719V13.0331H9.56749V23.3471Z" fill="#3CB769"/>
<path d="M6.71525 23.3471C6.71401 23.4592 6.71188 23.5735 6.70899 23.6905C6.70521 23.8435 6.70841 23.9959 6.72662 24.1478C6.78077 24.5994 6.93482 25.616 7.27548 26.2121C7.5362 26.6684 8.07655 27.1764 8.48223 27.5211C8.80733 27.7973 9.22458 27.9311 9.65115 27.9311H12.3488C12.7754 27.9311 13.1927 27.7973 13.5178 27.5211C13.9235 27.1764 14.4638 26.6684 14.7245 26.2121C15.0652 25.616 15.2192 24.5994 15.2734 24.1478C15.2916 23.9959 15.2948 23.8435 15.291 23.6905C15.2881 23.5735 15.286 23.4592 15.2847 23.3471H12.719H9.56749H6.71525Z" fill="#3CB769"/>
<path d="M6.71525 23.3471C6.73213 21.8269 6.58668 20.7293 5.98763 19.1917C5.7291 18.5282 5.24274 17.9882 4.71115 17.5143C2.76868 15.7828 1.54545 13.2615 1.54545 10.4545C1.54545 5.23294 5.7784 1 11 1C16.2216 1 20.4545 5.23294 20.4545 10.4545C20.4545 13.2615 19.2313 15.7828 17.2888 17.5143C16.7573 17.9882 16.2709 18.5282 16.0124 19.1917C15.4133 20.7293 15.2679 21.8269 15.2847 23.3471M6.71525 23.3471C6.71401 23.4592 6.71188 23.5735 6.70899 23.6905C6.70521 23.8435 6.70841 23.9959 6.72662 24.1478C6.78077 24.5994 6.93482 25.616 7.27548 26.2121C7.5362 26.6684 8.07655 27.1764 8.48223 27.5211C8.80733 27.7973 9.22458 27.9311 9.65115 27.9311H12.3488C12.7754 27.9311 13.1927 27.7973 13.5178 27.5211C13.9235 27.1764 14.4638 26.6684 14.7245 26.2121C15.0652 25.616 15.2192 24.5994 15.2734 24.1478C15.2916 23.9959 15.2948 23.8435 15.291 23.6905C15.2881 23.5735 15.286 23.4592 15.2847 23.3471M6.71525 23.3471H9.56749M15.2847 23.3471H9.56749M15.2847 23.3471H12.719M9.56749 23.3471V13.0331M9.56749 23.3471H12.719M9.56749 13.0331C9.56749 13.0331 9.84881 11.9236 9.56749 11.3141C9.26727 10.6636 8.85136 10.1602 8.13499 10.168C7.34388 10.1767 6.70248 10.8094 6.70248 11.6006C6.70248 12.3917 7.38443 12.7829 8.13499 13.0331C8.66571 13.21 9.56749 13.0331 9.56749 13.0331ZM9.56749 13.0331H12.719M12.719 23.3471V13.0331M12.719 13.0331C12.719 13.0331 12.4377 11.9236 12.719 11.3141C13.0192 10.6636 13.4351 10.1602 14.1515 10.168C14.9426 10.1767 15.584 10.8094 15.584 11.6006C15.584 12.3917 14.9021 12.7829 14.1515 13.0331C13.6208 13.21 12.719 13.0331 12.719 13.0331ZM3.90909 10.4545C3.94075 10.3578 3.97245 10.2623 4.00423 10.168M11 3.95455C7.85817 4.06125 6.1946 5.19446 4.89774 7.90931" stroke="black" stroke-width="1.5" stroke-linecap="round"/>
</svg>
