<svg width="30" height="29" viewBox="0 0 30 29" fill="none" xmlns="http://www.w3.org/2000/svg">
<path d="M23.7186 27.3415L24.0692 27.1312C24.8143 23.9494 25.3441 22.1993 26.6255 19.1782C25.9283 17.9237 25.3951 17.5073 24.0692 17.474H23.2732C22.2369 17.474 21.332 18.1751 21.073 19.1785L19.6996 24.5004C19.4319 25.5379 19.9253 26.6214 20.8836 27.1006L20.9448 27.1312L21.5333 27.4255C22.2282 27.7729 23.0524 27.7412 23.7186 27.3415Z" fill="#3CB769"/>
<path d="M29.0263 20.4159L28.6138 19.1782H26.6255C25.3441 22.1993 24.8143 23.9494 24.0692 27.1312H25.9935C26.8952 27.1312 27.7222 26.6017 28.0496 25.7615C28.6174 24.3043 28.9178 23.1153 29.127 21.3714C29.1656 21.0496 29.1288 20.7234 29.0263 20.4159Z" fill="#3CB769"/>
<path d="M6.24155 27.3416L5.89097 27.1312C5.14589 23.9494 4.61605 22.1994 3.33466 19.1782C4.03183 17.9237 4.56508 17.5073 5.89097 17.474H6.68696C7.72322 17.474 8.62822 18.1751 8.88716 19.1785L10.2606 24.5004C10.5283 25.5379 10.0349 26.6214 9.07655 27.1006L9.01536 27.1312L8.42682 27.4255C7.73195 27.7729 6.90773 27.7413 6.24155 27.3416Z" fill="#3CB769"/>
<path d="M0.933849 20.416L1.34642 19.1782H3.33466C4.61605 22.1994 5.14589 23.9494 5.89097 27.1312H3.96669C3.06492 27.1312 2.23794 26.6017 1.91054 25.7615C1.34276 24.3043 1.04241 23.1153 0.833174 21.3714C0.79457 21.0496 0.831369 20.7234 0.933849 20.416Z" fill="#3CB769"/>
<path d="M28.6138 14.6337C28.6138 7.104 22.5098 1 14.9801 1C7.45042 1 1.34642 7.10402 1.34642 14.6337M28.6138 14.6337H26.6255M28.6138 14.6337V19.1782M26.6255 14.6337V17.474V19.1782M26.6255 14.6337V14.6337C25.3776 14.6337 24.3665 13.6639 24.076 12.4503C23.0274 8.06909 19.8789 5.13636 14.9801 5.13636C10.0588 5.13636 6.90385 7.77498 5.86984 12.4483C5.60026 13.6668 4.58254 14.6337 3.33466 14.6337M28.6138 19.1782L29.0263 20.4159C29.1288 20.7234 29.1656 21.0496 29.127 21.3714C28.9178 23.1153 28.6174 24.3043 28.0496 25.7615C27.7222 26.6017 26.8952 27.1312 25.9935 27.1312H24.0692M28.6138 19.1782H26.6255M24.0692 27.1312L23.7186 27.3415C23.0524 27.7412 22.2282 27.7729 21.5333 27.4255L20.9448 27.1312M24.0692 27.1312C24.8143 23.9494 25.3441 22.1993 26.6255 19.1782M26.6255 19.1782C25.9283 17.9237 25.3951 17.5073 24.0692 17.474H23.2732C22.2369 17.474 21.332 18.1751 21.073 19.1785L19.6996 24.5004C19.4319 25.5379 19.9253 26.6214 20.8836 27.1006L20.9448 27.1312M20.9448 27.1312L22.649 22.5866M23.5011 20.3144L23.2881 20.8824M1.34642 14.6337H3.33466M1.34642 14.6337V19.1782M3.33466 14.6337V17.474V19.1782M1.34642 19.1782L0.933849 20.416C0.831369 20.7234 0.79457 21.0496 0.833174 21.3714C1.04241 23.1153 1.34276 24.3043 1.91054 25.7615C2.23794 26.6017 3.06492 27.1312 3.96669 27.1312H5.89097M1.34642 19.1782H3.33466M5.89097 27.1312L6.24155 27.3416C6.90773 27.7413 7.73195 27.7729 8.42682 27.4255L9.01535 27.1312M5.89097 27.1312C5.14589 23.9494 4.61605 22.1994 3.33466 19.1782M3.33466 19.1782C4.03183 17.9237 4.56508 17.5073 5.89097 17.474H6.68696C7.72322 17.474 8.62822 18.1751 8.88716 19.1785L10.2606 24.5004C10.5283 25.5379 10.0349 26.6214 9.07655 27.1006L9.01535 27.1312M9.01535 27.1312L7.31115 22.5867M6.45904 20.3144L6.67207 20.8825" stroke="black" stroke-width="1.5" stroke-linecap="round"/>
</svg>
