<svg width="40" height="20" viewBox="0 0 40 20" fill="none" xmlns="http://www.w3.org/2000/svg">
<path d="M13.4598 18.3304H37.2081C37.8391 18.3304 38.3505 17.8189 38.3505 17.188V15.4744H30.7821H23.2136C23.2136 15.4744 14.8354 15.9691 9.50469 15.4744C6.44322 15.1903 1.71495 14.332 1.71495 14.332C2.16776 15.1003 3.02671 16.0286 4.64945 16.9024C5.88963 17.5702 6.97048 17.9512 7.86007 18.1625C9.17833 18.4756 10.5474 18.4229 11.9129 18.3702C12.43 18.3503 12.9467 18.3304 13.4598 18.3304Z" fill="#3CB769"/>
<path d="M6.36307 8.61994C3.3867 9.26698 2.05211 10.1486 1.48256 10.9193C0.784347 11.8642 1.11842 13.3199 1.71495 14.332M6.36307 8.61994C7.86101 8.2943 9.52232 7.73104 11.2183 7.06223M6.36307 8.61994C6.36307 8.61994 7.50547 10.3336 8.64788 10.9048C9.79029 11.476 18.3584 12.6184 18.3584 12.6184M28.3544 4.90711C28.3544 4.90711 26.6408 2.33669 24.6416 1.76549C23.9307 1.56238 22.2449 2.18981 20.072 3.14702M28.3544 4.90711L29.1566 5.54885C29.5617 5.87295 30.0651 6.04952 30.5839 6.04952H32.4251M28.3544 4.90711C28.3544 4.90711 23.4992 10.048 21.7856 10.9048L18.3584 12.6184M11.2183 7.06223L12.9319 9.47675M11.2183 7.06223C12.2624 6.6505 13.3196 6.19877 14.3599 5.73786M14.3599 5.73786L16.0735 8.33434M14.3599 5.73786C15.335 5.30585 16.2953 4.86578 17.2159 4.44301M17.2159 4.44301L18.9296 6.90633M17.2159 4.44301L17.3849 4.36541M17.2159 4.44301C17.2724 4.41708 17.3288 4.39121 17.3849 4.36541M20.072 3.14702L21.7856 5.76392M20.072 3.14702C19.2387 3.51407 18.3339 3.92961 17.3849 4.36541M18.3584 12.6184L23.2136 15.4744M23.2136 15.4744C23.2136 15.4744 14.8354 15.9691 9.50469 15.4744C6.44322 15.1903 1.71495 14.332 1.71495 14.332M23.2136 15.4744H30.7821M1.71495 14.332C2.16776 15.1003 3.02671 16.0286 4.64945 16.9024C5.88963 17.5702 6.97048 17.9512 7.86007 18.1625C9.17833 18.4756 10.5474 18.4229 11.9129 18.3702C12.43 18.3503 12.9467 18.3304 13.4598 18.3304H37.2081C37.839 18.3304 38.3505 17.8189 38.3505 17.188V15.4744M38.3505 15.4744V15.4067C38.3505 15.0784 38.4477 14.7574 38.6298 14.4843C38.8198 14.1993 38.9171 13.8627 38.9086 13.5203L38.7575 7.47753M38.3505 15.4744H30.7821M30.7821 15.4744C31.688 10.9007 33.1267 8.94781 38.7575 7.47753M38.7575 7.47753L38.664 3.73615C38.6485 3.11653 38.1417 2.62229 37.5219 2.62229H37.0139C36.4902 2.62229 36.0657 3.0468 36.0657 3.57047C36.0657 4.22431 35.7289 4.83203 35.1744 5.17856L34.9306 5.33097M32.4251 6.04952C33.3111 6.04952 34.1793 5.80054 34.9306 5.33097M32.4251 6.04952H32.6337C33.3834 6.04952 34.118 5.83884 34.7537 5.44152L34.9306 5.33097" stroke="black" stroke-width="1.5" stroke-linecap="round"/>
</svg>
