<svg width="30" height="30" viewBox="0 0 30 30" fill="none" xmlns="http://www.w3.org/2000/svg">
<rect width="30" height="30" rx="15" fill="white"/>
<path d="M14.0451 7.07261C14.3365 6.13499 15.6635 6.13499 15.9549 7.0726L17.2511 11.2431C17.3811 11.6613 17.7681 11.9463 18.206 11.9463H22.4918C23.4498 11.9463 23.8595 13.1632 23.0967 13.7426L19.5541 16.4335C19.219 16.688 19.0791 17.1249 19.204 17.5266L20.5389 21.8219C20.8277 22.7511 19.754 23.5036 18.9791 22.915L15.6049 20.352C15.2473 20.0805 14.7527 20.0805 14.3951 20.352L11.0209 22.915C10.246 23.5036 9.1723 22.7511 9.46109 21.8219L10.796 17.5266C10.9209 17.1249 10.781 16.688 10.4459 16.4335L6.90332 13.7426C6.14049 13.1632 6.55025 11.9463 7.50818 11.9463H11.794C12.2319 11.9463 12.6189 11.6613 12.7489 11.2431L14.0451 7.07261Z" fill="#75D553"/>
</svg>
