<svg width="30" height="25" viewBox="0 0 30 25" fill="none" xmlns="http://www.w3.org/2000/svg">
<path d="M2.59512 22.1809C2.59512 23.0532 3.30224 23.7603 4.17453 23.7603C5.04681 23.7603 5.75393 23.0532 5.75393 22.1809V16.2608C5.75393 15.6528 5.92919 15.0637 6.08727 14.4767C6.1776 14.1412 6.23363 13.7634 6.28041 13.2309L1.01568 9.2824C1.25325 11.2212 1.49482 12.4508 2.31702 14.6218C2.49649 15.0957 2.59512 15.5971 2.59512 16.1039V22.1809Z" fill="#3CB769"/>
<path d="M1.01568 9.2824C0.300623 6.48999 1.67495 3.66664 2.78002 2.26701C3.37731 1.51049 4.4016 1.5955 5.08327 2.27697C8.096 5.28883 15.4625 14.9436 16.0201 15.8633C16.6842 16.9586 17.4053 17.5476 18.6524 17.9692C19.8211 18.3642 21.8112 17.9692 21.8112 17.9692L22.5499 17.6922C23.4329 17.361 24.4147 17.3294 25.2742 17.7175C27.0413 18.5153 28.0332 19.4629 28.7179 21.2225C29.0513 22.0792 28.6294 23.0231 27.8312 23.4792V23.4792C27.5092 23.6631 27.1433 23.7562 26.7726 23.7483L17.495 23.5509C15.9511 23.518 14.5696 22.5967 13.8349 21.2384C12.9904 19.6773 11.767 17.6606 10.4921 16.3897C9.03607 14.9382 6.2804 13.2309 6.2804 13.2309M1.01568 9.2824L6.2804 13.2309M1.01568 9.2824C1.25325 11.2212 1.49482 12.4508 2.31702 14.6218C2.49649 15.0957 2.59512 15.5971 2.59512 16.1039V22.1809C2.59512 23.0532 3.30224 23.7603 4.17453 23.7603V23.7603C5.04681 23.7603 5.75393 23.0532 5.75393 22.1809V16.2608C5.75393 15.6528 5.92919 15.0637 6.08727 14.4767C6.1776 14.1412 6.23363 13.7634 6.2804 13.2309M17.9545 21.4545H23.2446M25.6364 21.4545H26.2863" stroke="black" stroke-width="1.5" stroke-linecap="round"/>
</svg>
